<svg width="24" height="24" viewBox="0 0 24 24" fill="none" xmlns="http://www.w3.org/2000/svg">
<rect width="24" height="24" rx="12" fill="#1E203F"/>
<path d="M7.95312 18V6.28125H11.9609C12.9453 6.28125 13.7943 6.44271 14.5078 6.76562C15.2266 7.08333 15.7786 7.53906 16.1641 8.13281C16.5495 8.72135 16.7422 9.42448 16.7422 10.2422C16.7422 11.0599 16.5495 11.7682 16.1641 12.3672C15.7786 12.9609 15.2292 13.4193 14.5156 13.7422C13.8073 14.0651 12.9635 14.2266 11.9844 14.2266H10.3594V18H7.95312ZM10.3594 12.1172H11.7344C12.5521 12.1172 13.1797 11.9557 13.6172 11.6328C14.0599 11.3047 14.2812 10.8411 14.2812 10.2422C14.2812 9.65365 14.0599 9.19792 13.6172 8.875C13.1797 8.54688 12.5521 8.38281 11.7344 8.38281H10.3594V12.1172Z" fill="#D7E0FF"/>
</svg>
