<svg width="32" height="32" viewBox="0 0 32 32" fill="none" xmlns="http://www.w3.org/2000/svg">
<rect width="32" height="32" rx="16" fill="#1E203F"/>
<path d="M10.1914 23V8.35156H15.2012C16.4316 8.35156 17.4928 8.55339 18.3848 8.95703C19.2832 9.35417 19.9733 9.92383 20.4551 10.666C20.9368 11.4017 21.1777 12.2806 21.1777 13.3027C21.1777 14.3249 20.9368 15.2103 20.4551 15.959C19.9733 16.7012 19.2865 17.2741 18.3945 17.6777C17.5091 18.0814 16.4544 18.2832 15.2305 18.2832H13.1992V23H10.1914ZM13.1992 15.6465H14.918C15.9401 15.6465 16.7246 15.4447 17.2715 15.041C17.8249 14.6309 18.1016 14.0514 18.1016 13.3027C18.1016 12.5671 17.8249 11.9974 17.2715 11.5938C16.7246 11.1836 15.9401 10.9785 14.918 10.9785H13.1992V15.6465Z" fill="#D7E0FF"/>
</svg>
